<svg width="24" height="24" viewBox="0 0 24 24" fill="none" xmlns="http://www.w3.org/2000/svg">
<g clip-path="url(#clip0_164_5124)">
<path d="M14.4748 0.674805C14.0248 0.674805 13.6123 1.0498 13.6123 1.5373V9.0373C13.6123 9.4873 13.9873 9.89981 14.4748 9.89981H22.4998C22.7248 9.89981 22.9498 9.7873 23.0998 9.63731C23.2498 9.44981 23.3248 9.2248 23.3248 8.99981C23.0248 4.3123 19.1248 0.674805 14.4748 0.674805ZM15.2998 8.13731V2.3998C18.4123 2.7748 20.9248 5.0998 21.5248 8.1748H15.2998V8.13731Z"/>
<path d="M20.5123 11.5874H12.1498V3.52493C12.1498 3.07493 11.7748 2.69993 11.3248 2.69993C11.2123 2.69993 11.0998 2.69993 10.9873 2.69993C5.2873 2.66243 0.674805 7.31243 0.674805 13.0124C0.674805 18.7124 5.3248 23.3624 11.0248 23.3624C16.7248 23.3624 21.3748 18.7124 21.3748 13.0124C21.3748 12.7874 21.3748 12.5624 21.3373 12.3749C21.3373 11.9249 20.9623 11.5874 20.5123 11.5874ZM11.0248 21.6749C6.2248 21.6749 2.3623 17.8124 2.3623 13.0124C2.3623 8.43743 5.9623 4.64993 10.4998 4.38743V12.4124C10.4998 12.8624 10.8748 13.2749 11.3623 13.2749H19.7248C19.5748 17.9249 15.7123 21.6749 11.0248 21.6749Z" />
</g>
<defs>
<clipPath id="clip0_164_5124">
<rect width="24" height="24"/>
</clipPath>
</defs>
</svg>
