<svg width="22" height="17" viewBox="0 0 22 17" fill="none" xmlns="http://www.w3.org/2000/svg">
<path d="M19.2496 0.799805H2.74961C1.58086 0.799805 0.583984 1.7623 0.583984 2.96543V14.1029C0.583984 15.2717 1.54648 16.2686 2.74961 16.2686H19.2496C20.4184 16.2686 21.4152 15.3061 21.4152 14.1029V2.93105C21.4152 1.7623 20.4184 0.799805 19.2496 0.799805ZM19.2496 2.34668C19.284 2.34668 19.3184 2.34668 19.3527 2.34668L10.9996 7.70918L2.64648 2.34668C2.68086 2.34668 2.71523 2.34668 2.74961 2.34668H19.2496ZM19.2496 14.6529H2.74961C2.40586 14.6529 2.13086 14.3779 2.13086 14.0342V3.85918L10.1746 9.01543C10.4152 9.1873 10.6902 9.25605 10.9652 9.25605C11.2402 9.25605 11.5152 9.1873 11.7559 9.01543L19.7996 3.85918V14.0686C19.8684 14.4123 19.5934 14.6529 19.2496 14.6529Z" fill="#64748B"/>
</svg>
