<svg width="24" height="24" viewBox="0 0 24 24" fill="none" xmlns="http://www.w3.org/2000/svg">
<path d="M22.2945 12.2281C22.2945 11.3843 22.2244 10.7685 22.0727 10.1299H12.2109V13.9386H17.9996C17.8829 14.8851 17.2527 16.3106 15.8522 17.2684L15.8326 17.3959L18.9507 19.7562L19.1667 19.7772C21.1507 17.9869 22.2945 15.3527 22.2945 12.2281Z" fill="white"/>
<path d="M12.2115 22.2636C15.0474 22.2636 17.4282 21.3513 19.1672 19.7776L15.8527 17.2688C14.9657 17.8732 13.7753 18.2951 12.2115 18.2951C9.43383 18.2951 7.07635 16.5048 6.23597 14.0303L6.11279 14.0405L2.87053 16.4923L2.82812 16.6074C4.55538 19.96 8.10331 22.2636 12.2115 22.2636Z" fill="white"/>
<path d="M6.23525 14.0306C6.01351 13.392 5.88518 12.7077 5.88518 12.0007C5.88518 11.2937 6.01351 10.6095 6.22358 9.9709L6.21771 9.83489L2.93481 7.34375L2.8274 7.39367C2.11551 8.78492 1.70703 10.3472 1.70703 12.0007C1.70703 13.6542 2.11551 15.2165 2.8274 16.6077L6.23525 14.0306Z" fill="white"/>
<path d="M12.2115 5.7057C14.1838 5.7057 15.5142 6.53815 16.2729 7.23381L19.2372 4.40573C17.4166 2.75222 15.0474 1.7373 12.2115 1.7373C8.10331 1.7373 4.55538 4.0408 2.82812 7.3934L6.22431 9.97063C7.07635 7.49607 9.43383 5.7057 12.2115 5.7057Z" fill="white"/>
</svg>
