<svg width="14" height="18" viewBox="0 0 14 18" fill="none" xmlns="http://www.w3.org/2000/svg">
<path d="M13.8348 2.4469C13.8348 1.37815 12.9629 0.478149 11.866 0.478149H2.13477C1.06602 0.478149 0.166016 1.35002 0.166016 2.4469V16.5656C0.166016 16.7906 0.306641 17.0156 0.503516 17.1281C0.700391 17.2407 0.953516 17.2125 1.15039 17.1L2.55664 16.1719L4.44102 17.4094C4.66602 17.55 4.91914 17.55 5.14414 17.4094L7.00039 16.1719L8.85664 17.4094C8.96914 17.4938 9.08164 17.5219 9.19414 17.5219C9.30664 17.5219 9.44727 17.4938 9.53164 17.4094L11.3879 16.1719L12.7941 17.1281C12.991 17.2688 13.2441 17.2688 13.441 17.1563C13.6379 17.0438 13.7785 16.8188 13.7785 16.5938L13.8348 2.4469ZM12.0348 15.0469C11.6691 14.7938 11.191 14.7938 10.8254 15.0469L9.22227 16.1156L7.61914 15.0469C7.42227 14.9344 7.22539 14.85 7.00039 14.85C6.80352 14.85 6.57852 14.9063 6.40977 15.0469L4.80664 16.1156L3.20352 15.0469C2.83789 14.7938 2.35977 14.7938 1.99414 15.0469L1.45977 15.3844V2.4469C1.45977 2.05315 1.76914 1.74377 2.16289 1.74377H11.9223C12.316 1.74377 12.6254 2.05315 12.6254 2.4469V15.3844L12.0348 15.0469Z" fill="#DEE4EE"/>
</svg>
