<svg width="24" height="24" viewBox="0 0 24 24" fill="none" xmlns="http://www.w3.org/2000/svg">
<g opacity="0.5">
<path d="M17.1566 7.80614V6.91239C17.1566 4.16239 15.0941 1.82489 12.4816 1.61864C11.0379 1.48114 9.59414 1.99676 8.52852 2.95926C7.46289 3.92176 6.84414 5.29676 6.84414 6.70614V7.80614C4.85039 8.18426 3.33789 9.93739 3.33789 12.0686V18.2905C3.33789 20.5593 5.19414 22.3811 7.42852 22.3811H16.5035C18.7723 22.3811 20.6285 20.5249 20.6285 18.2561V11.9999C20.6629 9.93739 19.1504 8.21864 17.1566 7.80614ZM9.55977 4.09364C10.316 3.40614 11.3129 3.06239 12.3441 3.16551C14.166 3.33739 15.6098 4.98739 15.6098 6.91239V7.70301H8.39102V6.67176C8.39102 5.70926 8.80352 4.78114 9.55977 4.09364ZM19.116 18.2905C19.116 19.6999 17.9473 20.8686 16.5379 20.8686H7.46289C6.05352 20.8686 4.91914 19.7343 4.91914 18.3249V12.0686C4.91914 10.5218 6.15664 9.28426 7.70352 9.28426H16.2973C17.8441 9.28426 19.116 10.5218 19.116 11.9999V18.2905Z" fill="#64748B"/>
<path d="M12.0003 12.8593C11.5878 12.8593 11.2097 13.203 11.2097 13.6499V17.2593C11.2097 17.6718 11.5535 18.0499 12.0003 18.0499C12.4128 18.0499 12.791 17.7061 12.791 17.2593V13.6155C12.791 13.203 12.4128 12.8593 12.0003 12.8593Z" fill="#64748B"/>
</g>
</svg>
