<svg width="208" height="34" viewBox="0 0 208 34" fill="none" xmlns="http://www.w3.org/2000/svg">
<path d="M0.320234 33V0.551463H13.1222C15.5833 0.551463 17.68 1.0215 19.4123 1.96158C21.1445 2.8911 22.4649 4.18502 23.3733 5.84336C24.2922 7.49114 24.7517 9.39242 24.7517 11.5472C24.7517 13.702 24.2869 15.6033 23.3574 17.2511C22.4279 18.8988 21.0812 20.1822 19.3172 21.1011C17.5638 22.0201 15.4407 22.4796 12.9479 22.4796H4.78825V16.9817H11.8388C13.1592 16.9817 14.2471 16.7546 15.1027 16.3004C15.9688 15.8357 16.6132 15.1966 17.0357 14.3833C17.4687 13.5594 17.6853 12.614 17.6853 11.5472C17.6853 10.4698 17.4687 9.52974 17.0357 8.72697C16.6132 7.91365 15.9688 7.28517 15.1027 6.84154C14.2366 6.38734 13.138 6.16024 11.8071 6.16024H7.18069V33H0.320234ZM33.3767 0.551463V33H26.6272V0.551463H33.3767ZM51.9359 22.638V8.6636H58.6855V33H52.2053V28.5795H51.9517C51.4025 30.0055 50.4888 31.1515 49.2107 32.0177C47.9432 32.8838 46.3958 33.3169 44.5684 33.3169C42.9418 33.3169 41.5105 32.9472 40.2747 32.2078C39.0389 31.4684 38.0724 30.4174 37.3753 29.0548C36.6887 27.6923 36.3401 26.0603 36.3296 24.159V8.6636H43.0791V22.9549C43.0897 24.3914 43.4752 25.5269 44.2357 26.3614C44.9962 27.1958 46.0155 27.613 47.2936 27.613C48.1069 27.613 48.8674 27.4282 49.5751 27.0585C50.2828 26.6782 50.8532 26.1184 51.2863 25.379C51.7299 24.6396 51.9465 23.726 51.9359 22.638ZM74.5749 8.6636V13.7337H59.9192V8.6636H74.5749ZM63.2465 2.833H69.996V25.5216C69.996 26.1448 70.0911 26.6307 70.2812 26.9793C70.4713 27.3173 70.7354 27.5549 71.0734 27.6923C71.422 27.8296 71.8234 27.8982 72.2776 27.8982C72.5944 27.8982 72.9113 27.8718 73.2282 27.819C73.5451 27.7556 73.788 27.7081 73.957 27.6764L75.0186 32.699C74.6806 32.8046 74.2052 32.9261 73.5926 33.0634C72.98 33.2113 72.2353 33.301 71.3586 33.3327C69.732 33.3961 68.306 33.1796 67.0807 32.6831C65.866 32.1867 64.9207 31.4156 64.2446 30.3699C63.5686 29.3242 63.2359 28.0039 63.2465 26.4089V2.833ZM87.252 33.4753C84.7909 33.4753 82.6626 32.9525 80.8669 31.9068C79.0818 30.8505 77.7034 29.3823 76.7316 27.5021C75.7599 25.6114 75.274 23.4197 75.274 20.9269C75.274 18.4129 75.7599 16.2159 76.7316 14.3358C77.7034 12.445 79.0818 10.9768 80.8669 9.93112C82.6626 8.87485 84.7909 8.34672 87.252 8.34672C89.7131 8.34672 91.8362 8.87485 93.6213 9.93112C95.417 10.9768 96.8007 12.445 97.7725 14.3358C98.7442 16.2159 99.2301 18.4129 99.2301 20.9269C99.2301 23.4197 98.7442 25.6114 97.7725 27.5021C96.8007 29.3823 95.417 30.8505 93.6213 31.9068C91.8362 32.9525 89.7131 33.4753 87.252 33.4753ZM87.2837 28.2468C88.4034 28.2468 89.3382 27.9299 90.0881 27.2962C90.8381 26.6518 91.4032 25.7751 91.7834 24.666C92.1743 23.557 92.3697 22.2947 92.3697 20.8793C92.3697 19.4639 92.1743 18.2017 91.7834 17.0926C91.4032 15.9835 90.8381 15.1068 90.0881 14.4625C89.3382 13.8182 88.4034 13.496 87.2837 13.496C86.1535 13.496 85.2029 13.8182 84.4318 14.4625C83.6713 15.1068 83.0956 15.9835 82.7048 17.0926C82.3246 18.2017 82.1344 19.4639 82.1344 20.8793C82.1344 22.2947 82.3246 23.557 82.7048 24.666C83.0956 25.7751 83.6713 26.6518 84.4318 27.2962C85.2029 27.9299 86.1535 28.2468 87.2837 28.2468ZM105.11 33.4119C104.064 33.4119 103.167 33.0423 102.417 32.3029C101.677 31.5529 101.308 30.6551 101.308 29.6094C101.308 28.5742 101.677 27.687 102.417 26.9476C103.167 26.2082 104.064 25.8385 105.11 25.8385C106.124 25.8385 107.011 26.2082 107.772 26.9476C108.532 27.687 108.913 28.5742 108.913 29.6094C108.913 30.3065 108.733 30.9456 108.374 31.5265C108.025 32.0969 107.566 32.5564 106.996 32.9049C106.425 33.2429 105.797 33.4119 105.11 33.4119ZM124.03 25.549L124.298 25.9059C122.394 27.7798 120.669 29.3117 119.122 30.5015C117.576 31.6615 116.207 32.4795 115.018 32.9554C114.899 33.0149 114.72 33.0595 114.482 33.0892C114.244 33.119 114.006 33.1339 113.768 33.1339C113.263 33.1339 112.861 33.1041 112.564 33.0446C112.266 33.0149 112.028 32.9554 111.85 32.8661C111.315 32.5687 110.868 32.063 110.511 31.3492C110.154 30.6353 109.961 29.9066 109.931 29.163C109.902 28.2706 110.065 27.3039 110.422 26.2629C110.779 25.2218 111.374 24.0023 112.207 22.6043C112.504 22.1284 112.831 21.6079 113.188 21.0427C113.545 20.4478 114.066 19.5704 114.75 18.4103C115.553 17.0718 116.148 16.0903 116.535 15.4656C116.921 14.841 117.263 14.2758 117.561 13.7702H113.278C113.01 13.7702 112.861 13.7107 112.831 13.5917C112.831 13.4727 112.965 13.3686 113.233 13.2794C114.482 12.8035 115.508 12.4019 116.312 12.0747C117.115 11.7178 117.843 11.3609 118.498 11.0039C119.717 10.3793 121.026 9.65057 122.424 8.81773C123.852 7.98488 125.488 6.97357 127.332 5.78379C127.54 5.63507 127.704 5.59045 127.823 5.64994C127.971 5.70943 127.971 5.84328 127.823 6.05149C127.793 6.11098 127.719 6.22996 127.6 6.40842C127.51 6.55715 127.302 6.91408 126.975 7.47923C126.499 8.22284 126.127 8.81773 125.86 9.2639C125.622 9.68032 125.399 10.067 125.19 10.4239C126.112 10.4239 127.049 10.4091 128.001 10.3793C128.953 10.3496 129.994 10.3198 131.124 10.2901C131.362 10.2603 131.511 10.2455 131.571 10.2455C131.66 10.2455 131.719 10.2455 131.749 10.2455C131.808 10.2455 131.853 10.2752 131.883 10.3347C131.942 10.3644 131.957 10.4239 131.927 10.5132C131.868 10.6619 131.749 10.8701 131.571 11.1378C131.422 11.3758 131.214 11.6732 130.946 12.0301C130.41 12.7737 129.979 13.2943 129.652 13.5917C129.355 13.8594 129.072 13.9933 128.804 13.9933C128.537 13.9933 128.239 13.9933 127.912 13.9933C127.614 13.9635 127.124 13.9338 126.44 13.904C125.577 13.8743 124.908 13.8594 124.432 13.8594C123.986 13.8297 123.554 13.8148 123.138 13.8148C123.049 13.9635 122.231 15.302 120.684 17.8303C119.167 20.3288 118.067 22.2027 117.382 23.452C116.639 24.7608 116.148 25.8018 115.91 26.5752C115.672 27.3188 115.568 28.0773 115.598 28.8506C115.627 29.3563 115.776 29.8025 116.044 30.1891C116.341 30.5758 116.713 30.7989 117.159 30.8584C117.784 30.6799 118.766 30.0702 120.104 29.0291C121.472 27.9583 122.781 26.7983 124.03 25.549ZM136.088 30.8138C134.542 31.7953 133.277 32.4646 132.296 32.8215C131.344 33.1487 130.348 33.3123 129.307 33.3123C128.028 33.3123 126.897 32.9703 125.916 32.2861C124.934 31.5723 124.28 30.6353 123.953 29.4753C123.596 28.1665 123.536 26.8429 123.774 25.5044C124.012 24.1659 124.547 22.7233 125.38 21.1766C126.094 19.7786 127.239 18.3062 128.816 16.7595C130.422 15.2128 132.117 13.8892 133.902 12.7886C135.508 11.7773 136.847 11.0783 137.918 10.6916C139.018 10.2752 140.059 10.067 141.041 10.067C142.26 10.067 143.212 10.3496 143.896 10.9147C144.61 11.4799 144.967 12.2383 144.967 13.1902C144.967 14.5287 144.164 15.9415 142.558 17.4288C140.981 18.8862 138.245 20.775 134.348 23.0951C133.783 23.452 133.129 23.8387 132.385 24.2551C131.671 24.6715 130.69 25.2367 129.44 25.9506C129.678 27.1998 130.199 28.1665 131.002 28.8506C131.805 29.505 132.816 29.8322 134.036 29.8322C134.661 29.8322 135.285 29.743 135.91 29.5645C136.534 29.3563 137.189 29.044 137.873 28.6276C138.557 28.2111 139.33 27.5865 140.193 26.7537C141.085 25.9208 141.829 25.088 142.424 24.2551L142.781 24.4782C141.948 25.6085 140.892 26.7834 139.613 28.0029C138.334 29.1927 137.159 30.1297 136.088 30.8138ZM134.348 12.9671C133.843 13.2943 133.322 13.8148 132.787 14.5287C132.251 15.2128 131.716 16.0754 131.18 17.1164C130.526 18.3657 130.035 19.7637 129.708 21.3104C129.381 22.8571 129.277 24.27 129.396 25.549C129.604 25.43 130.288 25.0285 131.448 24.3444C132.638 23.6305 133.515 23.0951 134.081 22.7382C135.598 21.7268 136.758 20.8345 137.561 20.0611C138.364 19.258 138.944 18.4252 139.301 17.5626C139.39 17.3841 139.464 17.1908 139.524 16.9826C139.583 16.7446 139.613 16.5067 139.613 16.2687C139.613 15.2574 139.271 14.3948 138.587 13.681C137.903 12.9373 137.07 12.5655 136.088 12.5655C135.821 12.5655 135.523 12.6101 135.196 12.6994C134.899 12.7589 134.616 12.8481 134.348 12.9671ZM145.593 32.9108C145.415 33 145.192 33.0744 144.924 33.1339C144.686 33.1933 144.463 33.2231 144.255 33.2231C144.076 33.2231 143.883 33.2082 143.675 33.1785C143.496 33.1487 143.362 33.1041 143.273 33.0446C142.113 32.3307 141.533 30.9179 141.533 28.806C141.563 26.6942 142.128 24.4038 143.228 21.935C144.031 20.1206 145.296 18.3806 147.021 16.7149C148.746 15.0195 150.694 13.5917 152.866 12.4317C154.055 11.7178 155.186 11.1824 156.256 10.8255C157.357 10.4388 158.309 10.2455 159.112 10.2455C160.45 10.2455 161.581 10.528 162.503 11.0932C163.455 11.6583 164.243 12.5209 164.867 13.681C165.046 13.5917 165.254 13.4727 165.492 13.324C165.73 13.1456 166.146 12.8481 166.741 12.4317C167.515 11.926 168.08 11.5542 168.437 11.3163C168.794 11.0783 169.106 10.885 169.374 10.7362C169.552 10.647 169.671 10.6173 169.731 10.647C169.82 10.6768 169.85 10.766 169.82 10.9147C168.571 12.4912 167.217 14.3651 165.76 16.5364C164.302 18.7078 163.098 20.6709 162.146 22.4258C161.343 23.8833 160.748 25.1623 160.361 26.2629C159.975 27.3337 159.811 28.1814 159.87 28.806C159.93 29.2224 160.093 29.6091 160.361 29.9661C160.659 30.323 161.03 30.561 161.477 30.6799C161.982 30.5015 162.637 30.0702 163.44 29.386C164.243 28.7019 165.239 27.7204 166.429 26.4413L166.697 26.7537C164.734 28.8655 163.321 30.2784 162.458 30.9922C161.625 31.7061 160.763 32.301 159.87 32.7769C159.781 32.8364 159.588 32.881 159.29 32.9108C158.993 32.9405 158.621 32.9554 158.175 32.9554C157.818 32.9554 157.461 32.9405 157.104 32.9108C156.777 32.881 156.554 32.8364 156.435 32.7769C155.751 32.2713 155.23 31.7359 154.873 31.1707C154.546 30.6056 154.353 29.9809 154.293 29.2968C154.234 28.7019 154.323 28.0327 154.561 27.2891C154.799 26.5454 155.171 25.7275 155.676 24.8351C155.795 24.6269 156.078 24.1956 156.524 23.5413C156.97 22.8869 157.565 22.0094 158.309 20.9089C156.732 22.634 155.037 24.4038 153.223 26.2183C151.438 28.0029 150.025 29.3563 148.984 30.2784C148.27 30.903 147.645 31.4235 147.11 31.84C146.604 32.2266 146.099 32.5836 145.593 32.9108ZM148.538 19.9719C147.883 21.9648 147.497 23.8536 147.378 25.6382C147.288 27.3932 147.512 28.5383 148.047 29.0737C148.255 29.1927 148.538 29.1778 148.895 29.0291C149.281 28.8804 149.698 28.6276 150.144 28.2706C151.423 27.3188 153.074 25.8018 155.096 23.7197C157.149 21.6079 159.127 19.4068 161.03 17.1164C160.227 15.4805 159.32 14.2312 158.309 13.3686C157.298 12.506 156.271 12.0747 155.23 12.0747C154.784 12.0747 154.412 12.1194 154.115 12.2086C153.817 12.2978 153.52 12.4466 153.223 12.6548C152.3 13.2794 151.408 14.2461 150.546 15.5549C149.713 16.8636 149.043 18.336 148.538 19.9719ZM170.018 32.3307C169.632 32.539 169.215 32.7026 168.769 32.8215C168.353 32.9108 167.906 32.9703 167.431 33C166.449 33 165.72 32.7918 165.244 32.3754C164.739 31.9589 164.62 31.4087 164.887 30.7245C167.356 27.3337 169.364 24.1956 170.911 21.3104C172.457 18.4252 173.216 16.2985 173.186 14.9302C173.156 14.4246 173.037 14.0379 172.829 13.7702C172.651 13.4727 172.353 13.2794 171.937 13.1902C171.342 13.3984 170.643 13.8297 169.84 14.4841C169.037 15.1384 168.174 16.0159 167.252 17.1164L166.94 16.8934C167.802 15.8523 168.814 14.7815 169.974 13.681C171.163 12.5507 172.309 11.584 173.409 10.7809C173.796 10.4537 174.153 10.2306 174.48 10.1116C174.807 9.96289 175.134 9.88853 175.462 9.88853C176.205 9.88853 176.978 10.4239 177.782 11.4947C178.585 12.5358 179.001 13.5322 179.031 14.4841C179.061 15.2277 178.808 16.2241 178.272 17.4734C177.767 18.6929 176.517 20.9684 174.525 24.2997C177.737 19.8976 180.682 16.4174 183.359 13.8594C186.036 11.3014 188.162 9.96289 189.739 9.84391C191.762 10.5578 192.743 11.9558 192.684 14.0379C192.654 16.12 191.568 18.9457 189.427 22.5151C192.104 18.8565 194.825 15.8374 197.591 13.4579C200.358 11.0486 202.633 9.78442 204.418 9.66545C206.262 10.3496 207.095 11.6732 206.916 13.6363C206.738 15.5995 205.548 18.2467 203.347 21.5781C201.86 23.8387 200.878 25.4598 200.402 26.4413C199.956 27.4229 199.748 28.2111 199.778 28.806C199.807 29.2522 199.926 29.624 200.135 29.9214C200.373 30.1891 200.685 30.3825 201.072 30.5015C201.666 30.2933 202.425 29.8025 203.347 29.0291C204.269 28.2558 205.295 27.2593 206.426 26.0398L206.693 26.3521C206.693 26.3521 206.277 26.7834 205.444 27.646C204.641 28.5086 203.942 29.2076 203.347 29.743C202.633 30.3974 201.964 30.9625 201.339 31.4384C200.715 31.9143 200.105 32.301 199.51 32.5984C199.361 32.6877 199.123 32.762 198.796 32.8215C198.469 32.8513 198.082 32.8661 197.636 32.8661C197.19 32.8661 196.863 32.8513 196.654 32.8215C196.446 32.7918 196.253 32.7323 196.074 32.6431C195.45 32.2266 194.944 31.7061 194.557 31.0815C194.171 30.4271 193.977 29.7727 193.977 29.1183C193.948 28.464 194.23 27.527 194.825 26.3075C195.42 25.088 196.491 23.2884 198.038 20.9089C199.674 18.4103 200.67 16.5364 201.027 15.2872C201.384 14.0379 201.101 13.1009 200.179 12.4763C198.781 12.982 196.878 14.5138 194.468 17.0718C192.059 19.6298 189.798 22.5597 187.687 25.8613C187.121 26.7834 186.526 27.7947 185.902 28.8953C185.307 29.9958 184.727 31.0964 184.162 32.1969C183.775 32.4051 183.344 32.5687 182.868 32.6877C182.392 32.8067 181.931 32.8661 181.485 32.8661C180.503 32.8661 179.76 32.6579 179.254 32.2415C178.778 31.8251 178.644 31.2599 178.852 30.5461C179.061 30.2189 179.492 29.5496 180.146 28.5383C180.801 27.527 181.336 26.6942 181.752 26.0398C182.318 25.1475 182.823 24.3295 183.269 23.5859C183.716 22.8125 184.117 22.0838 184.474 21.3996C185.456 19.7042 186.155 18.336 186.571 17.2949C187.017 16.2241 187.255 15.302 187.285 14.5287C187.315 14.0825 187.255 13.7256 187.106 13.4579C186.988 13.1604 186.735 12.8927 186.348 12.6548C185.128 12.9522 183.433 14.261 181.262 16.581C179.09 18.9011 176.636 22.054 173.9 26.0398C173.662 26.367 173.216 27.066 172.561 28.1368C171.937 29.1778 171.089 30.5758 170.018 32.3307Z" />
</svg>
