<svg width="24" height="25" viewBox="0 0 24 25" fill="none" xmlns="http://www.w3.org/2000/svg">
<g >
<path d="M11.9998 11.022C14.5436 11.022 16.6061 9.02822 16.6061 6.55322C16.6061 4.07822 14.5436 2.08447 11.9998 2.08447C9.45605 2.08447 7.39355 4.07822 7.39355 6.55322C7.39355 9.02822 9.45605 11.022 11.9998 11.022ZM11.9998 3.66572C13.6842 3.66572 15.0592 4.97197 15.0592 6.5876C15.0592 8.20322 13.6842 9.50947 11.9998 9.50947C10.3154 9.50947 8.94043 8.20322 8.94043 6.5876C8.94043 4.97197 10.3154 3.66572 11.9998 3.66572Z" />
<path d="M14.2342 12.5688H9.76543C6.0873 12.5688 3.09668 15.5938 3.09668 19.272V22.1251C3.09668 22.5376 3.44043 22.9157 3.8873 22.9157C4.33418 22.9157 4.67793 22.572 4.67793 22.1251V19.272C4.67793 16.4532 6.98105 14.1157 9.83418 14.1157H14.2686C17.0873 14.1157 19.4248 16.4188 19.4248 19.272V22.1251C19.4248 22.5376 19.7686 22.9157 20.2154 22.9157C20.6623 22.9157 21.0061 22.572 21.0061 22.1251V19.272C20.9029 15.5938 17.9123 12.5688 14.2342 12.5688Z" />
</g>
</svg>
