<svg width="24" height="24" viewBox="0 0 24 24" fill="none" xmlns="http://www.w3.org/2000/svg">
<path fill-rule="evenodd" clip-rule="evenodd" d="M3.75016 7.41667C3.19763 7.41667 2.66773 7.63616 2.27702 8.02686C1.88632 8.41756 1.66683 8.94747 1.66683 9.5V20C1.66683 20.5525 1.88633 21.0824 2.27702 21.4731C2.66774 21.8638 3.19765 22.0833 3.75016 22.0833H18.7502C19.3026 22.0833 19.8326 21.8638 20.2233 21.4731C20.614 21.0824 20.8335 20.5525 20.8335 20V18.5C20.8335 17.9937 21.2439 17.5833 21.7502 17.5833C22.2564 17.5833 22.6668 17.9937 22.6668 18.5V20C22.6668 21.0387 22.2541 22.035 21.5196 22.7695C20.7851 23.504 19.7889 23.9167 18.7502 23.9167H3.75016C2.71137 23.9167 1.71517 23.504 0.980667 22.7695C0.246139 22.035 -0.166504 21.0387 -0.166504 20V9.5C-0.166504 8.46124 0.246143 7.46502 0.980662 6.7305C1.71518 5.99598 2.7114 5.58333 3.75016 5.58333H18.7502C19.7889 5.58333 20.7851 5.99598 21.5196 6.7305C22.2541 7.465 22.6668 8.46121 22.6668 9.5V11C22.6668 11.5063 22.2564 11.9167 21.7502 11.9167C21.2439 11.9167 20.8335 11.5063 20.8335 11V9.5C20.8335 8.94749 20.614 8.41758 20.2233 8.02686C19.8326 7.63616 19.3027 7.41667 18.7502 7.41667H3.75016Z" fill="#DEE4EE"/>
<path fill-rule="evenodd" clip-rule="evenodd" d="M15.8432 0.219769C15.542 0.119376 15.224 0.0793408 14.9074 0.101886L15.8432 0.219769ZM15.2635 1.95903C15.1909 1.93483 15.1141 1.92514 15.0376 1.93059C14.9612 1.93603 14.8866 1.95648 14.8181 1.99075L4.15986 7.31988C3.70705 7.54629 3.15643 7.36275 2.93003 6.90993C2.70362 6.45712 2.88716 5.9065 3.33997 5.6801L13.9977 0.351227C13.9976 0.35127 13.9978 0.351183 13.9977 0.351227C14.2816 0.209236 14.5909 0.124423 14.9074 0.101886M16.6626 0.686875C16.4229 0.478897 16.1443 0.320141 15.8432 0.219769L16.6626 0.686875ZM15.2635 1.95903C15.3361 1.98325 15.4034 2.02158 15.4612 2.07172L15.2635 1.95903ZM17.2409 1.43217C17.2409 1.43213 17.2409 1.43222 17.2409 1.43217L19.5698 6.09004C19.7962 6.54286 19.6127 7.09347 19.1599 7.31988C18.7071 7.54629 18.1564 7.36275 17.93 6.90993L15.601 2.25193C15.5667 2.18323 15.519 2.12182 15.4612 2.07172M17.2409 1.43217C17.0991 1.14848 16.9025 0.894969 16.6626 0.686875L17.2409 1.43217Z" fill="#DEE4EE"/>
<path fill-rule="evenodd" clip-rule="evenodd" d="M14.7001 11.4501C15.5753 10.575 16.7622 10.0833 18 10.0833H21.75C22.3908 10.0833 23.0056 10.3378 23.4588 10.7911C23.9121 11.2444 24.1666 11.8592 24.1666 12.5V17C24.1666 17.6408 23.9121 18.2556 23.4588 18.7089C23.0056 19.1622 22.3908 19.4167 21.75 19.4167H18C16.7622 19.4167 15.5753 18.925 14.7001 18.0499C13.8251 17.1747 13.3333 15.9877 13.3333 14.75C13.3333 13.5123 13.8251 12.3253 14.7001 11.4501ZM15.9964 12.7465C15.9964 12.7466 15.9964 12.7465 15.9964 12.7465C16.5278 12.2152 17.2485 11.9167 18 11.9167L21.7502 11.9167C21.9049 11.9167 22.0532 11.9782 22.1625 12.0875C22.2718 12.1968 22.3333 12.3452 22.3333 12.5V17C22.3333 17.1548 22.2718 17.3032 22.1625 17.4125C22.0532 17.5218 21.9049 17.5833 21.7502 17.5833L18 17.5833C17.2485 17.5833 16.5279 17.2848 15.9965 16.7536C15.9965 16.7535 15.9965 16.7536 15.9965 16.7536" fill="#DEE4EE"/>
<path fill-rule="evenodd" clip-rule="evenodd" d="M15.0527 1.99006C15.0403 1.99018 15.0246 1.99034 15.0097 1.99034C14.7336 1.99034 14.5097 1.76648 14.5097 1.49034C14.5097 1.2142 14.7336 0.990342 15.0097 0.990342C15.013 0.990342 15.0179 0.990251 15.0242 0.990133C15.0689 0.989308 15.1842 0.987179 15.2891 1.00625C15.3697 1.02091 15.4329 1.04957 15.4539 1.05914C15.4545 1.05941 15.4551 1.05968 15.4557 1.05992C15.648 1.07841 15.7802 1.18092 15.8344 1.22591C15.8649 1.25131 15.8924 1.27753 15.9068 1.29127C15.9079 1.29229 15.9089 1.29325 15.9098 1.29413C15.9216 1.30539 15.9261 1.30945 15.9267 1.31006C16.1401 1.48299 16.1741 1.79604 16.0023 2.01084C15.8298 2.22647 15.5151 2.26143 15.2995 2.08892C15.2803 2.07356 15.2638 2.05894 15.2514 2.04756C15.2479 2.04441 15.2445 2.04128 15.2413 2.03824C15.2345 2.03665 15.2279 2.03504 15.2217 2.03343C15.2028 2.02854 15.1863 2.02356 15.1771 2.02077L15.159 2.01529C15.1291 2.00677 15.104 1.99721 15.0862 1.98987C15.0795 1.98984 15.0718 1.98988 15.0622 1.98997C15.0593 1.98999 15.0561 1.99003 15.0527 1.99006ZM15.1952 1.99494C15.1951 1.99493 15.1951 1.99493 15.1952 1.99494V1.99494ZM15.4337 1.05377C15.4356 1.0543 15.4374 1.05484 15.4391 1.05537L15.4337 1.05377Z" fill="#DEE4EE"/>
<path fill-rule="evenodd" clip-rule="evenodd" d="M15.2963 0.561261C15.3988 0.304869 15.6898 0.180161 15.9462 0.282718C16.0741 0.333888 16.2207 0.400018 16.3672 0.502757C16.3923 0.520368 16.4133 0.537542 16.4286 0.550657C16.4313 0.550748 16.4342 0.55086 16.4372 0.550997C16.4369 0.550988 16.4372 0.551001 16.4372 0.550997C16.4424 0.551196 16.4851 0.552812 16.5337 0.564087C16.5339 0.56415 16.5343 0.564241 16.5349 0.564363C16.549 0.567427 16.6528 0.589994 16.7496 0.673826C16.8043 0.721196 16.8791 0.80836 16.9093 0.93777C17.0336 1.0252 17.1421 1.12585 17.2215 1.19946C17.2345 1.21151 17.2467 1.22284 17.258 1.23327C17.4616 1.41986 17.4754 1.73615 17.2888 1.93971C17.1022 2.14327 16.7859 2.15702 16.5823 1.97042C16.5671 1.95651 16.5528 1.94334 16.5392 1.93084C16.4404 1.83987 16.3803 1.7846 16.312 1.74091C16.3098 1.7395 16.3076 1.73811 16.3056 1.73675C16.2663 1.73054 16.2341 1.7211 16.2122 1.71326C16.1295 1.68364 16.0728 1.63965 16.0474 1.61847C16.0166 1.59293 15.9906 1.56589 15.9693 1.54002C15.9691 1.53974 15.9688 1.53945 15.9686 1.53913C15.9579 1.52622 15.9156 1.47499 15.8849 1.39905C15.8701 1.38857 15.8573 1.37872 15.8468 1.37027C15.8253 1.35297 15.8071 1.33651 15.7969 1.32726L15.783 1.31459C15.7297 1.27876 15.6662 1.24776 15.5748 1.21119C15.3184 1.10864 15.1937 0.817652 15.2963 0.561261ZM16.4012 0.55013C16.3986 0.550077 16.3992 0.550021 16.4023 0.550144L16.4012 0.55013Z" fill="#DEE4EE"/>
<path fill-rule="evenodd" clip-rule="evenodd" d="M15.6851 1.08007C15.6296 1.09176 15.5742 1.09374 15.5209 1.08718C15.5048 1.08875 15.4877 1.0908 15.4697 1.09334C15.3884 1.10479 15.2637 1.11661 15.1268 1.09197C15.1203 1.0908 15.114 1.08955 15.108 1.08824C15.0954 1.08747 15.0845 1.08666 15.076 1.08604C15.0746 1.08593 15.0732 1.08583 15.072 1.08574C15.0438 1.08368 15.0364 1.08336 15.032 1.08336C14.7558 1.08336 14.532 0.859503 14.532 0.583361C14.532 0.307219 14.7558 0.0833609 15.032 0.0833609C15.0765 0.0833609 15.1179 0.0864176 15.1413 0.0881433C15.1426 0.088238 15.1439 0.0883286 15.145 0.0884145C15.1737 0.0905117 15.1805 0.0907947 15.1844 0.0907947C15.2322 0.0907947 15.2748 0.0975756 15.3087 0.10567C15.3143 0.105162 15.3214 0.104359 15.3302 0.103115C15.4033 0.0928193 15.4858 0.084588 15.5719 0.0834078C15.578 0.0833231 15.5924 0.0831246 15.6057 0.0833715C15.612 0.0834878 15.6278 0.0838286 15.6469 0.0855634C15.6563 0.0864073 15.6747 0.0882908 15.6975 0.0926367C15.6971 0.0925758 15.6977 0.0926887 15.6975 0.0926367C15.7115 0.0952994 15.7724 0.106875 15.8399 0.14282C15.8743 0.161193 15.9501 0.206281 16.0133 0.295781C16.0893 0.403359 16.1273 0.54922 16.0914 0.700235C16.0612 0.82702 15.9908 0.906176 15.9566 0.940045C15.9187 0.977589 15.8829 1.00089 15.8638 1.01247C15.8254 1.03574 15.7925 1.04854 15.7809 1.05294C15.7653 1.05886 15.7524 1.06292 15.7446 1.06526C15.719 1.07292 15.6943 1.07813 15.6851 1.08007ZM15.0105 1.05732C15.0104 1.05727 15.0106 1.05735 15.0105 1.05732V1.05732Z" fill="#DEE4EE"/>
<path fill-rule="evenodd" clip-rule="evenodd" d="M15.7439 1.32047C15.9444 1.13064 16.2609 1.13933 16.4507 1.33987C16.4874 1.37867 16.5239 1.41444 16.5678 1.45748C16.5801 1.46949 16.5929 1.48206 16.6065 1.49543C16.6071 1.49603 16.608 1.49682 16.6091 1.49783C16.6138 1.50225 16.6275 1.51494 16.6424 1.53053C16.6713 1.56099 16.7336 1.63159 16.7701 1.74106C16.8574 2.00303 16.7158 2.28619 16.4538 2.37351C16.2438 2.44353 16.0201 2.36638 15.8947 2.19799C15.8884 2.1918 15.8819 2.18543 15.8752 2.17889C15.8294 2.13398 15.7754 2.08111 15.7245 2.02731C15.5346 1.82676 15.5433 1.5103 15.7439 1.32047ZM15.9296 2.23156C15.9305 2.23242 15.9306 2.23246 15.9296 2.23156V2.23156Z" fill="#DEE4EE"/>
</svg>
